<svg xmlns="http://www.w3.org/2000/svg" xmlns:xlink="http://www.w3.org/1999/xlink" width="500" zoomAndPan="magnify" viewBox="0 0 375 374.999991" height="500" preserveAspectRatio="xMidYMid meet" version="1.0"><defs><g/><clipPath id="f30f0080b5"><path d="M 116.457031 163.585938 L 258.542969 163.585938 L 258.542969 211.414062 L 116.457031 211.414062 Z M 116.457031 163.585938 " clip-rule="nonzero"/></clipPath></defs><rect x="-37.5" width="450" fill="#ffffff" y="-37.499999" height="449.999989" fill-opacity="1"/><rect x="-37.5" width="450" fill="#ffffff" y="-37.499999" height="449.999989" fill-opacity="1"/><rect x="-37.5" width="450" fill="#ffffff" y="-37.499999" height="449.999989" fill-opacity="1"/><g fill="#000000" fill-opacity="1"><g transform="translate(124.222628, 240.881698)"><g><path d="M 107.515625 -16.859375 C 112.878906 -9.535156 119.429688 -5.875 127.171875 -5.875 L 127.171875 0 L 74.40625 0 L 74.40625 -5.875 C 79.050781 -5.875 82.222656 -6.3125 83.921875 -7.1875 C 85.628906 -8.070312 86.484375 -9.285156 86.484375 -10.828125 C 86.484375 -11.546875 86.40625 -12.289062 86.25 -13.0625 C 86.09375 -13.84375 85.726562 -14.800781 85.15625 -15.9375 C 84.59375 -17.070312 83.796875 -18.460938 82.765625 -20.109375 C 81.734375 -21.765625 80.34375 -23.929688 78.59375 -26.609375 L 60.953125 -52.90625 L 47.65625 -36.203125 C 44.457031 -32.179688 41.773438 -28.722656 39.609375 -25.828125 C 37.441406 -22.941406 35.710938 -20.46875 34.421875 -18.40625 C 33.128906 -16.34375 32.195312 -14.640625 31.625 -13.296875 C 31.0625 -11.960938 30.78125 -10.832031 30.78125 -9.90625 C 30.78125 -8.351562 31.65625 -7.289062 33.40625 -6.71875 C 35.164062 -6.15625 38.46875 -5.875 43.3125 -5.875 L 43.3125 0 L 0.3125 0 L 0.3125 -5.875 C 2.78125 -5.875 5.019531 -6.128906 7.03125 -6.640625 C 9.050781 -7.160156 11.039062 -8.015625 13 -9.203125 C 14.957031 -10.390625 16.941406 -11.988281 18.953125 -14 C 20.960938 -16.007812 23.15625 -18.507812 25.53125 -21.5 L 55.84375 -60.171875 L 24.4375 -103.03125 C 21.863281 -106.644531 18.976562 -109.25 15.78125 -110.84375 C 12.582031 -112.445312 8.765625 -113.25 4.328125 -113.25 L 4.328125 -119.125 L 55.6875 -119.125 L 55.6875 -113.25 C 48.988281 -113.25 45.640625 -111.234375 45.640625 -107.203125 C 45.640625 -104.628906 47.082031 -101.226562 49.96875 -97 L 66.828125 -71.9375 L 82 -91.125 C 84.882812 -94.726562 86.894531 -97.664062 88.03125 -99.9375 C 89.164062 -102.207031 89.734375 -104.375 89.734375 -106.4375 C 89.734375 -109.007812 88.878906 -110.785156 87.171875 -111.765625 C 85.472656 -112.753906 82.457031 -113.25 78.125 -113.25 L 78.125 -119.125 L 120.671875 -119.125 L 120.671875 -113.25 C 118.191406 -113.25 116.050781 -113.066406 114.25 -112.703125 C 112.445312 -112.335938 110.71875 -111.585938 109.0625 -110.453125 C 107.414062 -109.316406 105.613281 -107.664062 103.65625 -105.5 C 101.695312 -103.34375 99.320312 -100.457031 96.53125 -96.84375 L 71.9375 -65.125 Z M 107.515625 -16.859375 "/></g></g></g><g clip-path="url(#f30f0080b5)"><path fill="#ffffff" d="M 116.457031 163.585938 L 258.542969 163.585938 L 258.542969 211.414062 L 116.457031 211.414062 Z M 116.457031 163.585938 " fill-opacity="1" fill-rule="nonzero"/></g><g fill="#000000" fill-opacity="1"><g transform="translate(32.424747, 205.124929)"><g><path d="M 24.40625 -13.953125 L 11.046875 -13.953125 C 10.484375 -12.585938 10 -11.378906 9.59375 -10.328125 C 9.195312 -9.273438 8.875 -8.363281 8.625 -7.59375 C 8.375 -6.832031 8.195312 -6.179688 8.09375 -5.640625 C 8 -5.109375 7.953125 -4.675781 7.953125 -4.34375 C 7.953125 -3.414062 8.25 -2.773438 8.84375 -2.421875 C 9.445312 -2.078125 10.445312 -1.90625 11.84375 -1.90625 L 11.84375 0 L -0.296875 0 L -0.296875 -1.90625 C 0.460938 -2 1.117188 -2.128906 1.671875 -2.296875 C 2.222656 -2.460938 2.707031 -2.695312 3.125 -3 C 3.539062 -3.300781 3.90625 -3.691406 4.21875 -4.171875 C 4.539062 -4.660156 4.851562 -5.253906 5.15625 -5.953125 L 18.15625 -38.5 L 20.296875 -38.5 L 31.65625 -10.296875 C 32.414062 -8.429688 33.078125 -6.941406 33.640625 -5.828125 C 34.210938 -4.710938 34.765625 -3.867188 35.296875 -3.296875 C 35.828125 -2.734375 36.398438 -2.367188 37.015625 -2.203125 C 37.640625 -2.035156 38.382812 -1.953125 39.25 -1.953125 L 39.25 0 L 22.953125 0 L 22.953125 -1.953125 C 24.710938 -1.953125 25.925781 -2.117188 26.59375 -2.453125 C 27.257812 -2.785156 27.59375 -3.332031 27.59375 -4.09375 C 27.59375 -4.425781 27.578125 -4.734375 27.546875 -5.015625 C 27.515625 -5.304688 27.457031 -5.617188 27.375 -5.953125 C 27.289062 -6.285156 27.171875 -6.660156 27.015625 -7.078125 C 26.867188 -7.492188 26.679688 -7.984375 26.453125 -8.546875 Z M 12.046875 -16.453125 L 23.453125 -16.453125 L 17.90625 -31.203125 Z M 12.046875 -16.453125 "/></g></g></g><g fill="#000000" fill-opacity="1"><g transform="translate(74.018733, 205.124929)"><g><path d="M 2.90625 -11.75 L 4.75 -11.75 C 4.976562 -10.25 5.414062 -8.898438 6.0625 -7.703125 C 6.71875 -6.503906 7.535156 -5.488281 8.515625 -4.65625 C 9.503906 -3.820312 10.640625 -3.175781 11.921875 -2.71875 C 13.203125 -2.269531 14.59375 -2.046875 16.09375 -2.046875 C 18.5625 -2.046875 20.507812 -2.628906 21.9375 -3.796875 C 23.375 -4.960938 24.09375 -6.546875 24.09375 -8.546875 C 24.09375 -9.378906 23.953125 -10.144531 23.671875 -10.84375 C 23.390625 -11.550781 22.914062 -12.226562 22.25 -12.875 C 21.582031 -13.519531 20.691406 -14.160156 19.578125 -14.796875 C 18.460938 -15.429688 17.050781 -16.113281 15.34375 -16.84375 C 13.28125 -17.75 11.546875 -18.617188 10.140625 -19.453125 C 8.742188 -20.285156 7.628906 -21.148438 6.796875 -22.046875 C 5.960938 -22.953125 5.367188 -23.910156 5.015625 -24.921875 C 4.671875 -25.941406 4.5 -27.101562 4.5 -28.40625 C 4.5 -29.9375 4.773438 -31.347656 5.328125 -32.640625 C 5.878906 -33.941406 6.65625 -35.066406 7.65625 -36.015625 C 8.65625 -36.972656 9.835938 -37.707031 11.203125 -38.21875 C 12.566406 -38.738281 14.066406 -39 15.703125 -39 C 17.171875 -39 18.535156 -38.765625 19.796875 -38.296875 C 21.066406 -37.828125 22.351562 -37.078125 23.65625 -36.046875 L 24.953125 -38.296875 L 26.09375 -38.296875 L 26.65625 -28.34375 L 24.796875 -28.34375 C 23.992188 -31.082031 22.832031 -33.117188 21.3125 -34.453125 C 19.800781 -35.785156 17.976562 -36.453125 15.84375 -36.453125 C 13.8125 -36.453125 12.195312 -35.953125 11 -34.953125 C 9.800781 -33.953125 9.203125 -32.601562 9.203125 -30.90625 C 9.203125 -30.101562 9.332031 -29.375 9.59375 -28.71875 C 9.863281 -28.070312 10.296875 -27.457031 10.890625 -26.875 C 11.492188 -26.289062 12.28125 -25.707031 13.25 -25.125 C 14.21875 -24.539062 15.414062 -23.929688 16.84375 -23.296875 C 19.3125 -22.203125 21.363281 -21.175781 23 -20.21875 C 24.632812 -19.269531 25.929688 -18.320312 26.890625 -17.375 C 27.859375 -16.425781 28.539062 -15.425781 28.9375 -14.375 C 29.34375 -13.320312 29.546875 -12.144531 29.546875 -10.84375 C 29.546875 -9.175781 29.210938 -7.644531 28.546875 -6.25 C 27.878906 -4.851562 26.945312 -3.65625 25.75 -2.65625 C 24.550781 -1.65625 23.117188 -0.878906 21.453125 -0.328125 C 19.785156 0.222656 17.953125 0.5 15.953125 0.5 C 14.046875 0.5 12.332031 0.234375 10.8125 -0.296875 C 9.300781 -0.828125 7.765625 -1.726562 6.203125 -3 L 4.796875 -0.546875 L 3.65625 -0.546875 Z M 2.90625 -11.75 "/></g></g></g><g fill="#000000" fill-opacity="1"><g transform="translate(109.263699, 205.124929)"><g><path d="M 32.90625 -28.84375 C 32.90625 -27.082031 32.617188 -25.5 32.046875 -24.09375 C 31.484375 -22.695312 30.59375 -21.515625 29.375 -20.546875 C 28.15625 -19.578125 26.570312 -18.828125 24.625 -18.296875 C 22.675781 -17.765625 20.300781 -17.5 17.5 -17.5 L 13 -17.5 L 13 -7.84375 C 13 -6.613281 13.070312 -5.609375 13.21875 -4.828125 C 13.375 -4.046875 13.691406 -3.4375 14.171875 -3 C 14.660156 -2.5625 15.363281 -2.269531 16.28125 -2.125 C 17.195312 -1.976562 18.40625 -1.90625 19.90625 -1.90625 L 19.90625 0 L 2.25 0 L 2.25 -1.90625 C 3.414062 -1.9375 4.359375 -2.035156 5.078125 -2.203125 C 5.796875 -2.367188 6.351562 -2.648438 6.75 -3.046875 C 7.144531 -3.453125 7.410156 -4.019531 7.546875 -4.75 C 7.679688 -5.476562 7.75 -6.425781 7.75 -7.59375 L 7.75 -30.90625 C 7.75 -32.070312 7.691406 -33.007812 7.578125 -33.71875 C 7.460938 -34.4375 7.226562 -35.003906 6.875 -35.421875 C 6.519531 -35.835938 6.007812 -36.117188 5.34375 -36.265625 C 4.675781 -36.421875 3.8125 -36.53125 2.75 -36.59375 L 2.75 -38.5 L 18.453125 -38.5 C 23.046875 -38.5 26.601562 -37.648438 29.125 -35.953125 C 31.644531 -34.253906 32.90625 -31.882812 32.90625 -28.84375 Z M 13 -20 L 16.546875 -20 C 19.878906 -20 22.351562 -20.640625 23.96875 -21.921875 C 25.59375 -23.203125 26.40625 -25.3125 26.40625 -28.25 C 26.40625 -31.082031 25.757812 -33.109375 24.46875 -34.328125 C 23.1875 -35.546875 21.179688 -36.15625 18.453125 -36.15625 L 13.84375 -36.15625 C 13.28125 -36.15625 13 -35.867188 13 -35.296875 Z M 13 -20 "/></g></g></g><g fill="#000000" fill-opacity="1"><g transform="translate(146.608337, 205.124929)"><g><path d="M 24.40625 -13.953125 L 11.046875 -13.953125 C 10.484375 -12.585938 10 -11.378906 9.59375 -10.328125 C 9.195312 -9.273438 8.875 -8.363281 8.625 -7.59375 C 8.375 -6.832031 8.195312 -6.179688 8.09375 -5.640625 C 8 -5.109375 7.953125 -4.675781 7.953125 -4.34375 C 7.953125 -3.414062 8.25 -2.773438 8.84375 -2.421875 C 9.445312 -2.078125 10.445312 -1.90625 11.84375 -1.90625 L 11.84375 0 L -0.296875 0 L -0.296875 -1.90625 C 0.460938 -2 1.117188 -2.128906 1.671875 -2.296875 C 2.222656 -2.460938 2.707031 -2.695312 3.125 -3 C 3.539062 -3.300781 3.90625 -3.691406 4.21875 -4.171875 C 4.539062 -4.660156 4.851562 -5.253906 5.15625 -5.953125 L 18.15625 -38.5 L 20.296875 -38.5 L 31.65625 -10.296875 C 32.414062 -8.429688 33.078125 -6.941406 33.640625 -5.828125 C 34.210938 -4.710938 34.765625 -3.867188 35.296875 -3.296875 C 35.828125 -2.734375 36.398438 -2.367188 37.015625 -2.203125 C 37.640625 -2.035156 38.382812 -1.953125 39.25 -1.953125 L 39.25 0 L 22.953125 0 L 22.953125 -1.953125 C 24.710938 -1.953125 25.925781 -2.117188 26.59375 -2.453125 C 27.257812 -2.785156 27.59375 -3.332031 27.59375 -4.09375 C 27.59375 -4.425781 27.578125 -4.734375 27.546875 -5.015625 C 27.515625 -5.304688 27.457031 -5.617188 27.375 -5.953125 C 27.289062 -6.285156 27.171875 -6.660156 27.015625 -7.078125 C 26.867188 -7.492188 26.679688 -7.984375 26.453125 -8.546875 Z M 12.046875 -16.453125 L 23.453125 -16.453125 L 17.90625 -31.203125 Z M 12.046875 -16.453125 "/></g></g></g><g fill="#000000" fill-opacity="1"><g transform="translate(188.202321, 205.124929)"><g><path d="M 32.90625 -28.84375 C 32.90625 -26.175781 32.101562 -23.957031 30.5 -22.1875 C 28.894531 -20.425781 26.34375 -19.25 22.84375 -18.65625 L 33.90625 -5.34375 C 34.800781 -4.25 35.789062 -3.457031 36.875 -2.96875 C 37.957031 -2.488281 39.25 -2.132812 40.75 -1.90625 L 40.75 0 L 31.09375 0 L 18.84375 -15.703125 C 18.414062 -16.265625 18.007812 -16.710938 17.625 -17.046875 C 17.238281 -17.378906 16.835938 -17.632812 16.421875 -17.8125 C 16.003906 -18 15.519531 -18.117188 14.96875 -18.171875 C 14.425781 -18.222656 13.769531 -18.25 13 -18.25 L 13 -7.84375 C 13 -6.613281 13.070312 -5.609375 13.21875 -4.828125 C 13.375 -4.046875 13.691406 -3.4375 14.171875 -3 C 14.660156 -2.5625 15.363281 -2.269531 16.28125 -2.125 C 17.195312 -1.976562 18.40625 -1.90625 19.90625 -1.90625 L 19.90625 0 L 2.25 0 L 2.25 -1.90625 C 3.414062 -1.9375 4.359375 -2.035156 5.078125 -2.203125 C 5.796875 -2.367188 6.351562 -2.648438 6.75 -3.046875 C 7.144531 -3.453125 7.410156 -4.019531 7.546875 -4.75 C 7.679688 -5.476562 7.75 -6.425781 7.75 -7.59375 L 7.75 -30.90625 C 7.75 -32.070312 7.691406 -33.007812 7.578125 -33.71875 C 7.460938 -34.4375 7.226562 -35.003906 6.875 -35.421875 C 6.519531 -35.835938 6.007812 -36.117188 5.34375 -36.265625 C 4.675781 -36.421875 3.8125 -36.53125 2.75 -36.59375 L 2.75 -38.5 L 18.453125 -38.5 C 23.046875 -38.5 26.601562 -37.648438 29.125 -35.953125 C 31.644531 -34.253906 32.90625 -31.882812 32.90625 -28.84375 Z M 13 -20.75 L 16.546875 -20.75 C 19.878906 -20.75 22.351562 -21.359375 23.96875 -22.578125 C 25.59375 -23.796875 26.40625 -25.800781 26.40625 -28.59375 C 26.40625 -31.300781 25.757812 -33.238281 24.46875 -34.40625 C 23.1875 -35.570312 21.179688 -36.15625 18.453125 -36.15625 L 13.84375 -36.15625 C 13.28125 -36.15625 13 -35.867188 13 -35.296875 Z M 13 -20.75 "/></g></g></g><g fill="#000000" fill-opacity="1"><g transform="translate(230.596189, 205.124929)"><g><path d="M 39.296875 -28.953125 L 37.25 -28.953125 C 37.144531 -30.378906 36.910156 -31.578125 36.546875 -32.546875 C 36.179688 -33.515625 35.65625 -34.273438 34.96875 -34.828125 C 34.289062 -35.378906 33.429688 -35.769531 32.390625 -36 C 31.359375 -36.226562 30.128906 -36.34375 28.703125 -36.34375 C 27.460938 -36.34375 26.46875 -36.316406 25.71875 -36.265625 C 24.96875 -36.222656 24.394531 -36.132812 24 -36 C 23.601562 -35.863281 23.34375 -35.703125 23.21875 -35.515625 C 23.101562 -35.335938 23.046875 -35.097656 23.046875 -34.796875 L 23.046875 -8.046875 C 23.046875 -6.984375 23.117188 -6.066406 23.265625 -5.296875 C 23.421875 -4.535156 23.722656 -3.910156 24.171875 -3.421875 C 24.617188 -2.941406 25.269531 -2.578125 26.125 -2.328125 C 26.976562 -2.078125 28.101562 -1.9375 29.5 -1.90625 L 29.5 0 L 10.59375 0 L 10.59375 -1.90625 C 12 -1.9375 13.132812 -2.078125 14 -2.328125 C 14.863281 -2.578125 15.519531 -2.941406 15.96875 -3.421875 C 16.425781 -3.910156 16.726562 -4.535156 16.875 -5.296875 C 17.019531 -6.066406 17.09375 -6.984375 17.09375 -8.046875 L 17.09375 -34.796875 C 17.09375 -35.097656 17.035156 -35.335938 16.921875 -35.515625 C 16.804688 -35.703125 16.570312 -35.863281 16.21875 -36 C 15.875 -36.132812 15.382812 -36.222656 14.75 -36.265625 C 14.113281 -36.316406 13.265625 -36.34375 12.203125 -36.34375 C 10.898438 -36.34375 9.691406 -36.289062 8.578125 -36.1875 C 7.460938 -36.09375 6.492188 -35.800781 5.671875 -35.3125 C 4.859375 -34.832031 4.203125 -34.09375 3.703125 -33.09375 C 3.203125 -32.09375 2.9375 -30.710938 2.90625 -28.953125 L 1.046875 -28.953125 L 1.046875 -38.5 L 38.796875 -38.5 Z M 39.296875 -28.953125 "/></g></g></g><g fill="#000000" fill-opacity="1"><g transform="translate(273.739932, 205.124929)"><g><path d="M 13 -9.453125 C 13 -7.785156 13.066406 -6.46875 13.203125 -5.5 C 13.335938 -4.53125 13.59375 -3.78125 13.96875 -3.25 C 14.351562 -2.71875 14.90625 -2.367188 15.625 -2.203125 C 16.34375 -2.035156 17.285156 -1.9375 18.453125 -1.90625 L 18.453125 0 L 2.25 0 L 2.25 -1.90625 C 3.414062 -1.9375 4.359375 -2.039062 5.078125 -2.21875 C 5.796875 -2.40625 6.351562 -2.75 6.75 -3.25 C 7.144531 -3.75 7.410156 -4.457031 7.546875 -5.375 C 7.679688 -6.289062 7.75 -7.53125 7.75 -9.09375 L 7.75 -29.40625 C 7.75 -30.800781 7.691406 -31.957031 7.578125 -32.875 C 7.460938 -33.789062 7.226562 -34.515625 6.875 -35.046875 C 6.519531 -35.578125 6.007812 -35.953125 5.34375 -36.171875 C 4.675781 -36.390625 3.8125 -36.53125 2.75 -36.59375 L 2.75 -38.5 L 17.953125 -38.5 L 17.953125 -36.59375 C 16.878906 -36.5625 16.019531 -36.425781 15.375 -36.1875 C 14.726562 -35.957031 14.226562 -35.566406 13.875 -35.015625 C 13.519531 -34.472656 13.285156 -33.71875 13.171875 -32.75 C 13.054688 -31.78125 13 -30.546875 13 -29.046875 Z M 13 -9.453125 "/></g></g></g><g fill="#000000" fill-opacity="1"><g transform="translate(297.486673, 205.124929)"><g><path d="M 34.703125 0.5 L 10.953125 -30.796875 L 10.75 -30.796875 L 10.75 -9.453125 C 10.75 -7.785156 10.804688 -6.46875 10.921875 -5.5 C 11.035156 -4.53125 11.269531 -3.78125 11.625 -3.25 C 11.976562 -2.71875 12.476562 -2.367188 13.125 -2.203125 C 13.769531 -2.035156 14.628906 -1.9375 15.703125 -1.90625 L 15.703125 0 L 2.25 0 L 2.25 -1.90625 C 3.414062 -1.9375 4.359375 -2.039062 5.078125 -2.21875 C 5.796875 -2.40625 6.351562 -2.75 6.75 -3.25 C 7.144531 -3.75 7.410156 -4.457031 7.546875 -5.375 C 7.679688 -6.289062 7.75 -7.53125 7.75 -9.09375 L 7.75 -29.40625 C 7.75 -30.800781 7.691406 -31.957031 7.578125 -32.875 C 7.460938 -33.789062 7.226562 -34.515625 6.875 -35.046875 C 6.519531 -35.578125 6.007812 -35.953125 5.34375 -36.171875 C 4.675781 -36.390625 3.8125 -36.53125 2.75 -36.59375 L 2.75 -38.5 L 12.65625 -38.5 L 34.5 -9.34375 L 34.703125 -9.34375 L 34.703125 -29.046875 C 34.703125 -30.679688 34.640625 -31.988281 34.515625 -32.96875 C 34.398438 -33.957031 34.164062 -34.71875 33.8125 -35.25 C 33.46875 -35.78125 32.96875 -36.128906 32.3125 -36.296875 C 31.664062 -36.460938 30.8125 -36.5625 29.75 -36.59375 L 29.75 -38.5 L 43.203125 -38.5 L 43.203125 -36.59375 C 42.035156 -36.5625 41.09375 -36.453125 40.375 -36.265625 C 39.65625 -36.085938 39.09375 -35.75 38.6875 -35.25 C 38.289062 -34.75 38.023438 -34.03125 37.890625 -33.09375 C 37.765625 -32.164062 37.703125 -30.9375 37.703125 -29.40625 L 37.703125 0.5 Z M 34.703125 0.5 "/></g></g></g></svg>